<svg xmlns="http://www.w3.org/2000/svg" width="512" height="512" viewBox="0 0 24 24" fill="none">

  <!-- Background gradient rectangle -->
  <defs>
    <linearGradient id="grad" x1="0" y1="0" x2="1" y2="0">
      <stop offset="0%" stop-color="#2563eb"></stop>   <!-- Tailwind blue-600 -->
      <stop offset="100%" stop-color="#9333ea"></stop> <!-- Tailwind purple-600 -->
    </linearGradient>
  </defs>

  <!-- Rounded rectangle to mimic rounded-xl -->
  <rect x="0" y="0" width="24" height="24" rx="3.5" ry="3.5" fill="url(#grad)"></rect>

  <!-- Audio waveform icon -->
  <path d="M2 13a2 2 0 0 0 2-2V7a2 2 0 0 1 4 0v13a2 2 0 0 0 4 0V4a2 2 0 0 1 4 0v13a2 2 0 0 0 4 0v-4a2 2 0 0 1 2-2" stroke="white" stroke-width="2" stroke-linecap="round" stroke-linejoin="round"></path>
</svg>
